# xmcd
# 
# Track frame offsets:
#     150
#     13799
#     26444
#     39503
#     52022
#     66037
#     78616
#     93382
#     105927
#     119308
#     132235
#     145781
#     159769
#     167754
# 
# Disc length: 2437
# 
# Revision: 5
# Processed by: cddbd v1.5.2PL0 Copyright (c) Steve Scherf et al.
# Submitted via: fre:ac v1.0.17
# 
DISCID=ac09830e
DTITLE=Various Artist - Memory Of 50s Vol.8
DYEAR=0
DGENRE=Jazz
TTITLE0=Sarah Vaughan - Ain't Misbehavin
TTITLE1=Louis Armstrong - Among My Souvenirs
TTITLE2=Anida Oday - Bolero At The Savoy
TTITLE3=Andrews Sisters - Boogie Woogie Bugle Boy
TTITLE4=Bing Crosby - Don't Fence Me In
TTITLE5=Frank Sinatra - Falling In Love With You
TTITLE6=Ella Fitzgerald - How Long Has This Been Going On?
TTITLE7=Ray Charles - I've Had My Fun
TTITLE8=Glenn Miller - In The Mood
TTITLE9=Bing Crosby - I'll Be Seeing You
TTITLE10=Peggy Lee - It's All Over Now
TTITLE11=Peggy Lee - Linger In My Arms A Little Longer
TTITLE12=Dinah Shore - My Heart Stood Still
TTITLE13=Sarah Vaughan - The Nearness Of You
EXTD=
EXTT0=
EXTT1=
EXTT2=
EXTT3=
EXTT4=
EXTT5=
EXTT6=
EXTT7=
EXTT8=
EXTT9=
EXTT10=
EXTT11=
EXTT12=
EXTT13=
PLAYORDER=
